<?xml version="1.0" encoding="UTF-8"?><svg id="a" xmlns="http://www.w3.org/2000/svg" viewBox="0 0 64 64"><path d="M57,40h-12.17c-.53,0-1.04-.21-1.41-.58l-2.83-2.83c-.38-.38-.88-.59-1.41-.59h-13.17c-1.1,0-2,.9-2,2v20c0,1.1,.9,2,2,2h31c1.1,0,2-.9,2-2v-16c0-1.1-.9-2-2-2Z"/><path d="M57,10h-12.17c-.53,0-1.04-.21-1.41-.59l-2.83-2.83c-.38-.38-.88-.59-1.41-.59h-13.17c-1.1,0-2,.9-2,2V28c0,1.1,.9,2,2,2h31c1.1,0,2-.9,2-2V12c0-1.1-.9-2-2-2Z"/><path d="M10.5,14V6H5.5V44c0,5.79,4.71,10.5,10.5,10.5h4v-5h-4c-3.03,0-5.5-2.47-5.5-5.5V22.93c1.6,.99,3.48,1.57,5.5,1.57h4v-5h-4c-3.03,0-5.5-2.47-5.5-5.5Z"/></svg>