<?xml version="1.0" encoding="UTF-8"?><svg id="a" xmlns="http://www.w3.org/2000/svg" viewBox="0 0 64 64"><circle cx="27" cy="18" r="4"/><path d="M43.09,52H16c-3.87,0-7-3.13-7-7V15.6c-2.56,.47-4.5,2.71-4.5,5.4V53c0,3.03,2.47,5.5,5.5,5.5H46c2.33,0,4.32-1.46,5.12-3.51-.04,0-.08,0-.12,0-3.03,0-5.8-1.14-7.91-3Z"/><path d="M18,48.5h22.35c-.86-1.65-1.35-3.52-1.35-5.5,0-1.22,.19-2.39,.52-3.5H19.5c-1.1,0-2-.9-2-2V12.5c0-1.1,.9-2,2-2H52.5c1.1,0,2,.9,2,2V31.52c1.91,.58,3.62,1.63,5,3.02V11c0-3.03-2.47-5.5-5.5-5.5H18c-3.03,0-5.5,2.47-5.5,5.5V43c0,3.03,2.47,5.5,5.5,5.5Z"/><path d="M21.5,30.51v2.99c0,1.1,.9,2,2,2h18.15c2.1-2.62,5.28-4.33,8.85-4.47v-.7c0-.53-.21-1.04-.59-1.41l-6.67-6.67c-.71-.71-1.85-.78-2.64-.16l-6.21,4.83c-.8,.62-1.93,.55-2.64-.16l-1.54-1.54c-.7-.7-1.8-.78-2.6-.2l-5.3,3.89c-.51,.38-.82,.98-.82,1.61Z"/><path d="M60.74,56.01l-3.65-6.39c1.79-1.65,2.92-4,2.92-6.61,0-4.96-4.04-9-9-9s-9,4.04-9,9,4.04,9,9,9c.91,0,1.79-.14,2.62-.39l3.65,6.38c.37,.65,1.04,1.01,1.74,1.01,.34,0,.68-.08,.99-.26,.96-.55,1.29-1.77,.74-2.73Zm-9.74-8.01c-2.76,0-5-2.24-5-5s2.24-5,5-5,5,2.24,5,5-2.24,5-5,5Z"/></svg>