<?xml version="1.0" encoding="UTF-8"?><svg id="a" xmlns="http://www.w3.org/2000/svg" viewBox="0 0 64 64"><path d="M12,31.84v-7.84h-2c-2.21,0-4,1.79-4,4v10.34c0,1.06,.42,2.08,1.17,2.83l16,16c1.56,1.56,4.09,1.56,5.66,0l3.42-3.42L13.17,34.67c-.75-.75-1.17-1.77-1.17-2.83Z"/><path d="M41.26,44.74s-.06-.04-.09-.07L22.17,25.67c-.75-.75-1.17-1.77-1.17-2.83v-7.84h-2c-2.21,0-4,1.79-4,4v10.34c0,1.06,.42,2.08,1.17,2.83l16,16c1.56,1.56,4.09,1.56,5.66,0l3.43-3.43Z"/><path d="M41.17,39.17c1.56,1.56,4.09,1.56,5.66,0l10.34-10.34c1.56-1.56,1.56-4.09,0-5.66L41.17,7.17c-.75-.75-1.77-1.17-2.83-1.17h-10.34c-2.21,0-4,1.79-4,4v10.34c0,1.06,.42,2.08,1.17,2.83l16,16ZM31,11c1.1,0,2,.9,2,2s-.9,2-2,2-2-.9-2-2,.9-2,2-2Z"/><path d="M58,38c-1.38-1.38-3.62-1.38-5,0l-6.5,6.5-.75-.75c-.41-.41-1.09-.41-1.5,0-.41,.41-.41,1.09,0,1.5l1.25,1.25-8.33,8.33c-.75,.75-1.17,1.77-1.17,2.83v.64c0,.45,.18,.89,.5,1.21s.75,.5,1.21,.5h.64c1.06,0,2.08-.42,2.83-1.17l8.33-8.33,1.25,1.25c.41,.41,1.09,.41,1.5,0,.41-.41,.41-1.09,0-1.5l-.75-.75,6.5-6.5c1.38-1.38,1.38-3.62,0-5Zm-18.24,19.41c-.38,.38-.88,.59-1.41,.59h-.34v-.34c0-.53,.21-1.04,.59-1.41l8.33-8.33,1.17,1.17-8.33,8.33Z"/></svg>