<?xml version="1.0" encoding="UTF-8"?><svg id="a" xmlns="http://www.w3.org/2000/svg" viewBox="0 0 64 64"><path d="M11,43V18h-2c-2.21,0-4,1.79-4,4v28c0,2.21,1.79,4,4,4H47c2.21,0,4-1.79,4-4v-3H15c-2.21,0-4-1.79-4-4Z"/><path d="M56,14h-14.34c-1.06,0-2.08-.42-2.83-1.17l-3.66-3.66c-.75-.75-1.77-1.17-2.83-1.17h-14.34c-2.21,0-4,1.79-4,4v28c0,2.21,1.79,4,4,4H56c2.21,0,4-1.79,4-4V18c0-2.21-1.79-4-4-4Zm-7.33,16.17c-2.58,4.13-6.84,6.83-11.67,6.83s-9.09-2.7-11.67-6.83c-.44-.7-.44-1.64,0-2.34,2.58-4.13,6.84-6.83,11.67-6.83s9.09,2.7,11.67,6.83c.44,.7,.44,1.64,0,2.34Z"/><ellipse cx="37" cy="29" rx="5.35" ry="5.25"/></svg>