<?xml version="1.0" encoding="UTF-8"?><svg id="a" xmlns="http://www.w3.org/2000/svg" viewBox="0 0 64 64"><path d="M47.83,51.57c-.32-.45-.21-1.08,.25-1.39l3.1-2.17c.15-.1,.25-.23,.33-.38,.18-.37,.09-.8-.2-1.11-.06-.06-.09-.13-.17-.18l-15.96-10.17c-.09-.06-.18-.08-.27-.08h-.01s-.03,.01-.05,.01c-.07,0-.13,.03-.19,.07-.02,.01-.04,.03-.06,.05-.05,.04-.08,.09-.11,.14-.01,.02-.03,.04-.04,.07-.03,.08-.04,.18-.02,.27l3.59,15.29h0l.72,3.05c.16,.69,.97,1,1.55,.59l2.89-2.02c.45-.32,1.08-.21,1.39,.25l3.44,4.91c.32,.45,.94,.56,1.39,.25l1.64-1.15c.45-.32,.56-.94,.25-1.39l-3.44-4.91Z"/><path d="M56,8H8c-2.21,0-4,1.79-4,4V48c0,2.21,1.79,4,4,4h26.93l-3.42-14.6c-.25-1.05,0-2.13,.66-2.97,.67-.85,1.67-1.33,2.75-1.33,.67,0,1.32,.19,1.88,.55l15.96,10.17c1.13,.72,1.82,1.95,1.85,3.29,.03,1.34-.61,2.6-1.7,3.36l-1.46,1.02,.36,.51h4.21c2.21,0,4-1.79,4-4V12c0-2.21-1.79-4-4-4ZM10,16c-1.1,0-2-.9-2-2s.9-2,2-2,2,.9,2,2-.9,2-2,2Zm17,23h-8c-1.1,0-2-.9-2-2s.9-2,2-2h8c1.1,0,2,.9,2,2s-.9,2-2,2Zm4.56-6.91c-.9,.63-2.15,.41-2.79-.49l-4.59-6.55c-.63-.9-.41-2.15,.49-2.79,.9-.63,2.15-.41,2.79,.49l4.59,6.55c.63,.9,.41,2.15-.49,2.79Zm10.79-9.44l-2.74,7.52c-.38,1.04-1.53,1.57-2.56,1.2-1.04-.38-1.57-1.53-1.2-2.56l2.74-7.52c.38-1.04,1.53-1.57,2.56-1.2s1.57,1.53,1.2,2.56Zm11.65-6.65H18c-1.1,0-2-.9-2-2s.9-2,2-2H54c1.1,0,2,.9,2,2s-.9,2-2,2Z"/></svg>