<?xml version="1.0" encoding="UTF-8"?><svg id="a" xmlns="http://www.w3.org/2000/svg" viewBox="0 0 64 64"><path d="M12,31.84v-7.84h-2c-2.21,0-4,1.79-4,4v10.34c0,1.06,.42,2.08,1.17,2.83l16,16c1.56,1.56,4.09,1.56,5.66,0l3.42-3.42L13.17,34.67c-.75-.75-1.17-1.77-1.17-2.83Z"/><path d="M33,37c0-.16,.02-.32,.02-.48l-10.85-10.85c-.75-.75-1.17-1.77-1.17-2.83v-7.84h-2c-2.21,0-4,1.79-4,4v10.34c0,1.06,.42,2.08,1.17,2.83l16,16c1.56,1.56,4.09,1.56,5.66,0l.94-.94c-3.45-2.11-5.77-5.9-5.77-10.23Z"/><path d="M51.08,43.61c1.79-1.65,2.92-4,2.92-6.61,0-4.96-4.04-9-9-9s-9,4.04-9,9,4.04,9,9,9c.91,0,1.79-.14,2.62-.39l3.65,6.38c.37,.65,1.04,1.01,1.74,1.01,.34,0,.68-.08,.99-.26,.96-.55,1.29-1.77,.74-2.73l-3.65-6.39Zm-11.08-6.61c0-2.76,2.24-5,5-5s5,2.24,5,5-2.24,5-5,5-5-2.24-5-5Z"/><path d="M57.17,23.17L41.17,7.17c-.75-.75-1.77-1.17-2.83-1.17h-10.34c-2.21,0-4,1.79-4,4v10.34c0,1.06,.42,2.08,1.17,2.83l8.9,8.9c1.89-4.16,6.07-7.07,10.93-7.07,4.33,0,8.12,2.32,10.23,5.77l1.94-1.94c1.56-1.56,1.56-4.09,0-5.66ZM31,15c-1.1,0-2-.9-2-2s.9-2,2-2,2,.9,2,2-.9,2-2,2Z"/></svg>