<?xml version="1.0" encoding="UTF-8"?><svg id="a" xmlns="http://www.w3.org/2000/svg" viewBox="0 0 64 64"><path d="M53.04,22.93c-.32-.45-.21-1.08,.25-1.39l3.1-2.17c.15-.1,.25-.23,.33-.38,.18-.37,.09-.8-.2-1.11-.06-.06-.09-.13-.17-.18l-15.96-10.17c-.09-.06-.18-.08-.27-.08h-.01s-.03,.01-.05,.01c-.07,0-.13,.03-.19,.07-.02,.01-.04,.03-.06,.05-.05,.04-.08,.09-.11,.14-.01,.02-.03,.04-.04,.07-.03,.08-.04,.18-.02,.27l3.59,15.29h0l.72,3.05c.16,.69,.97,1,1.55,.59l2.89-2.02c.45-.32,1.08-.21,1.39,.25l3.44,4.91c.32,.45,.94,.56,1.39,.25l1.64-1.15c.45-.32,.56-.94,.25-1.39l-3.44-4.91Z"/><g><path d="M10,14.86h27.12l-1.38-5.87c-.08-.32-.1-.65-.11-.98H10c-1.1,0-2,.9-2,2v2.86c0,1.1,.9,2,2,2Z"/><path d="M10,25.14h28c.55,0,1.04-.22,1.4-.58l-.07-.3-1.4-5.98H10c-1.1,0-2,.9-2,2v2.86c0,1.1,.9,2,2,2Z"/><path d="M40,31.62v-1.05c0-1.1-.9-2-2-2H10c-1.1,0-2,.9-2,2v2.86c0,1.1,.9,2,2,2h25.97c1.03-1.56,2.41-2.86,4.03-3.81Z"/><path d="M34.43,38.86H18c-1.1,0-2,.9-2,2v2.86c0,1.1,.9,2,2,2h16.6c-.38-1.17-.6-2.42-.6-3.71,0-1.09,.16-2.14,.43-3.14Z"/><path d="M36.38,49.14H10c-1.1,0-2,.9-2,2v2.86c0,1.1,.9,2,2,2h28c1.1,0,2-.9,2-2v-1.62c-1.42-.82-2.65-1.93-3.62-3.23Z"/></g><path d="M55.74,55.01l-3.65-6.39c1.79-1.65,2.92-4,2.92-6.61,0-4.96-4.04-9-9-9s-9,4.04-9,9,4.04,9,9,9c.91,0,1.79-.14,2.62-.39l3.65,6.38c.37,.65,1.04,1.01,1.74,1.01,.34,0,.68-.08,.99-.26,.96-.55,1.29-1.77,.74-2.73Zm-14.74-13.01c0-2.76,2.24-5,5-5s5,2.24,5,5-2.24,5-5,5-5-2.24-5-5Z"/></svg>