<?xml version="1.0" encoding="UTF-8"?><svg id="a" xmlns="http://www.w3.org/2000/svg" viewBox="0 0 64 64"><path d="M56,8H8c-2.21,0-4,1.79-4,4V52c0,2.21,1.79,4,4,4H56c2.21,0,4-1.79,4-4V12c0-2.21-1.79-4-4-4Zm-14.95,40.34c-.78,.45-1.63,.66-2.48,.66-1.74,0-3.42-.91-4.35-2.52l-1.81-3.16c-.11,0-.22,.02-.33,.02-5.88,0-10.67-4.79-10.67-10.67s4.79-10.67,10.67-10.67,10.67,4.79,10.67,10.67c0,2.09-.61,4.04-1.66,5.69l1.81,3.17c1.37,2.4,.54,5.45-1.86,6.82Zm5.95-32.34H10c-1.1,0-2-.9-2-2s.9-2,2-2H47c1.1,0,2,.9,2,2s-.9,2-2,2Zm7,0c-1.1,0-2-.9-2-2s.9-2,2-2,2,.9,2,2-.9,2-2,2Z"/><path d="M37.5,38.1c1.4-1.39,2.26-3.31,2.26-5.43,0-4.23-3.44-7.67-7.67-7.67s-7.67,3.44-7.67,7.67,3.44,7.67,7.67,7.67c.67,0,1.31-.09,1.93-.26l2.81,4.92c.37,.65,1.04,1.01,1.74,1.01,.34,0,.68-.08,.99-.26,.96-.55,1.29-1.77,.74-2.73l-2.81-4.91Zm-5.41-1.76c-2.02,0-3.67-1.64-3.67-3.67s1.64-3.67,3.67-3.67,3.67,1.64,3.67,3.67-1.64,3.67-3.67,3.67Z"/></svg>