<?xml version="1.0" encoding="utf-8"?>
<!-- Generator: Adobe Illustrator 25.2.1, SVG Export Plug-In . SVG Version: 6.00 Build 0)  -->
<svg version="1.1" id="Layer_1" xmlns="http://www.w3.org/2000/svg" xmlns:xlink="http://www.w3.org/1999/xlink" x="0px" y="0px"
	 viewBox="0 0 640 480" style="enable-background:new 0 0 640 480;" xml:space="preserve">
<style type="text/css">
	.st0{fill:#FFFFFF;}
	.st1{fill:#23252E;}
	.st2{fill:#F45E54;}
	.st3{fill:#F4B92E;}
	.st4{fill:#29C340;}
	.st5{fill:#15171A;}
	.st6{fill:#1473E6;}
	.st7{fill:#C8C8C8;}
	.st8{fill:none;}
	.st9{fill:#FF6157;}
	.st10{fill:#FFC12F;}
</style>
<path class="st0" d="M624,480H16c-8.84,0-16-7.16-16-16V16C0,7.16,7.16,0,16,0h608c8.84,0,16,7.16,16,16v448
	C640,472.84,632.84,480,624,480z"/>
<g>
	<path class="st1" d="M65.08,480h509.85V246.36c0-8.84-7.16-16-16-16H81.08c-8.84,0-16,7.16-16,16V480z"/>
	<circle class="st2" cx="89.08" cy="254.36" r="8"/>
	<circle class="st3" cx="113.08" cy="254.51" r="8"/>
	<circle class="st4" cx="137.08" cy="254.51" r="8"/>
	<g>
		<path class="st5" d="M89.08,390.02c-3.31,0-6-2.69-6-6v-97.51c0-3.31,2.69-6,6-6h97.51c3.31,0,6,2.69,6,6v97.51c0,3.31-2.69,6-6,6
			H89.08z"/>
		<path class="st6" d="M186.59,282.51c2.21,0,4,1.79,4,4v97.51c0,2.21-1.79,4-4,4H89.08c-2.21,0-4-1.79-4-4v-97.51
			c0-2.21,1.79-4,4-4H186.59 M186.59,278.51H89.08c-4.42,0-8,3.58-8,8v97.51c0,4.42,3.58,8,8,8h97.51c4.42,0,8-3.58,8-8v-97.51
			C194.59,282.09,191.01,278.51,186.59,278.51L186.59,278.51z"/>
	</g>
	<g>
		<path class="st5" d="M306.21,392.02H208.7c-4.42,0-8-3.58-8-8v-97.51c0-4.42,3.58-8,8-8h97.51c4.42,0,8,3.58,8,8v97.51
			C314.21,388.44,310.63,392.02,306.21,392.02z"/>
	</g>
	<g>
		<path class="st5" d="M194.59,480H81.08v-73.97c0-4.42,3.58-8,8-8h97.51c4.42,0,8,3.58,8,8V480z"/>
	</g>
	<g>
		<path class="st5" d="M314.21,480H200.7v-73.97c0-4.42,3.58-8,8-8h97.51c4.42,0,8,3.58,8,8V480z"/>
	</g>
	<g>
		<path class="st5" d="M426.51,392.02H329c-4.42,0-8-3.58-8-8v-97.51c0-4.42,3.58-8,8-8h97.51c4.42,0,8,3.58,8,8v97.51
			C434.51,388.44,430.93,392.02,426.51,392.02z"/>
	</g>
	<g>
		<path class="st5" d="M523.28,263.86H187.19c-2.35,0-4.26-1.91-4.26-4.26v-10.47c0-2.35,1.91-4.26,4.26-4.26h336.09
			c2.35,0,4.26,1.91,4.26,4.26v10.47C527.54,261.95,525.63,263.86,523.28,263.86z"/>
	</g>
	<g>
		<path class="st5" d="M547.13,262.36h-3c-4.42,0-8-3.58-8-8v-3c0-4.42,3.58-8,8-8h3c4.42,0,8,3.58,8,8v3
			C555.13,258.78,551.55,262.36,547.13,262.36z"/>
	</g>
	<g>
		<path class="st5" d="M434.51,480H321v-73.97c0-4.42,3.58-8,8-8h97.51c4.42,0,8,3.58,8,8V480z"/>
	</g>
	<g>
		<path class="st5" d="M547.13,392.02h-97.51c-4.42,0-8-3.58-8-8v-97.51c0-4.42,3.58-8,8-8h97.51c4.42,0,8,3.58,8,8v97.51
			C555.13,388.44,551.55,392.02,547.13,392.02z"/>
	</g>
	<g>
		<path class="st5" d="M555.13,480H441.62v-73.97c0-4.42,3.58-8,8-8h97.51c4.42,0,8,3.58,8,8V480z"/>
	</g>
	<path class="st2" d="M286.07,260.41h-95.14c-2.35,0-4.26-1.91-4.26-4.26v-3.26c0-2.35,1.91-4.26,4.26-4.26h95.14
		c2.35,0,4.26,1.91,4.26,4.26v3.26C290.33,258.5,288.42,260.41,286.07,260.41z"/>
	<path class="st7" d="M363.12,260.41h-65.85c-2.35,0-4.26-1.91-4.26-4.26v-3.26c0-2.35,1.91-4.26,4.26-4.26h65.85
		c2.35,0,4.26,1.91,4.26,4.26v3.26C367.38,258.5,365.48,260.41,363.12,260.41z"/>
</g>
<path class="st1" d="M381.93,163.74l-24.8-24.8c-1.12-1.12-2.64-1.74-4.23-1.74h-4.05c6.86-8.78,10.94-19.82,10.94-31.83
	c0-28.58-23.15-51.73-51.73-51.73c-28.58,0-51.73,23.15-51.73,51.73s23.15,51.73,51.73,51.73c12.01,0,23.06-4.08,31.83-10.94v4.05
	c0,1.59,0.62,3.11,1.74,4.23l24.8,24.8c2.34,2.34,6.12,2.34,8.43,0l7.04-7.04C384.25,169.86,384.25,166.08,381.93,163.74z
	 M308.07,137.2c-17.58,0-31.83-14.23-31.83-31.83c0-17.58,14.23-31.83,31.83-31.83c17.58,0,31.83,14.23,31.83,31.83
	C339.9,122.95,325.68,137.2,308.07,137.2z"/>
</svg>
