<svg style="enable-background:new 0 0 640 480" version="1.1" viewBox="0 0 640 480" xmlns="http://www.w3.org/2000/svg"><style type="text/css">.st0{fill:#FFFFFF;}
	.st1{fill:#23252E;}
	.st2{fill:#F45E54;}
	.st3{fill:#F4B92E;}
	.st4{fill:#29C340;}
	.st5{fill:#15171A;}
	.st6{fill:#1473E6;}
	.st7{fill:#C8C8C8;}
	.st8{fill:none;}
	.st9{font-family:'Arial';}
	.st10{font-size:29.7321px;}
	.st11{font-family:'Arial';font-weight:700;}
	.st12{fill:#FF6157;}
	.st13{fill:#FFC12F;}</style><path class="st0" d="m624 480h-608c-8.84 0-16-7.16-16-16v-448c0-8.84 7.16-16 16-16h608c8.84 0 16 7.16 16 16v448c0 8.84-7.16 16-16 16z"/><path class="st1" d="M221.34,480H624c8.84,0,16-7.16,16-16V50H237.34c-8.84,0-16,7.16-16,16V480z"/><circle class="st2" cx="295.05" cy="113.37" r="15.89"/><circle class="st3" cx="342.73" cy="113.67" r="15.89"/><circle class="st4" cx="390.4" cy="113.67" r="15.89"/><g transform="translate(16 96)"><rect class="st8" x="265.58" y="275.89" width="402.53" height="54.89"/><g transform="translate(32 4)"><rect class="st8" x="306.76" y="281.03" width="36.59" height="36.59"/><path class="st7" d="m336.89 299.96-12.58-12.58c-0.52-0.46-1.2-0.68-1.89-0.62h-5.53c-2.43 0-4.39 1.97-4.4 4.4v5.53c-0.06 0.69 0.17 1.37 0.63 1.89l12.58 12.58c1.11 1.04 2.86 0.98 3.9-0.13l7.17-7.17c1.11-1.04 1.16-2.78 0.12-3.9zm-16.44-5.23c-0.96 0.84-2.4 0.84-3.36 0-0.84-0.96-0.84-2.4 0-3.36 0.96-0.84 2.4-0.84 3.36 0 0.84 0.96 0.84 2.39 0 3.36z"/></g><text class="st7 st9 st10" transform="translate(393.65 313.62)">Proportions</text></g><g transform="translate(16 72)"><rect class="st8" x="265.58" y="245" width="402.53" height="54.89"/><g transform="translate(12 4)"><rect class="st8" x="281.02" y="250.14" width="36.59" height="36.59"/><path class="st7" d="m304.5 267.1c0.74 0.59 0.86 1.67 0.27 2.41-0.08 0.1-0.17 0.19-0.27 0.27l-6.97 5.58c-0.74 0.59-1.82 0.47-2.41-0.27-0.24-0.3-0.38-0.68-0.38-1.07v-11.16c0-0.95 0.77-1.72 1.72-1.71 0.39 0 0.77 0.13 1.07 0.38l6.97 5.57z"/></g><g transform="translate(32 4)"><rect class="st8" x="306.76" y="250.14" width="36.59" height="36.59"/><path class="st7" d="m336.89 269.07-12.58-12.58c-0.52-0.46-1.2-0.68-1.89-0.62h-5.53c-2.43 0-4.39 1.97-4.4 4.4v5.53c-0.06 0.69 0.17 1.37 0.63 1.89l12.58 12.58c1.11 1.04 2.86 0.98 3.9-0.13l7.17-7.17c1.11-1.04 1.16-2.78 0.12-3.9zm-16.44-5.23c-0.96 0.84-2.4 0.84-3.36 0-0.84-0.96-0.84-2.4 0-3.36 0.96-0.84 2.4-0.84 3.36 0 0.84 0.96 0.84 2.39 0 3.36z"/></g><text class="st7 st9 st10" transform="translate(393.65 282.73)">Anatomy</text></g><rect class="st8" x="244.98" y="152.33" width="439.12" height="54.89"/><text class="st7 st11 st10" transform="translate(281.57 188.92)">Tags</text><g transform="translate(168 4)"><rect class="st8" x="415.07" y="157.47" width="36.59" height="36.59"/><g transform="translate(4 4)"><path class="st7" d="m428.22 162.62h2.29c0.63 0 1.14 0.51 1.14 1.14v16.01c0 0.63-0.51 1.14-1.14 1.14h-2.29c-0.63 0-1.14-0.51-1.14-1.14v-16.01c0-0.62 0.51-1.14 1.14-1.14z"/><path class="st7" d="m420.22 172.92v-2.29c0-0.63 0.51-1.14 1.14-1.14h16.01c0.63 0 1.14 0.51 1.14 1.14v2.29c0 0.63-0.51 1.14-1.14 1.14h-16.01c-0.63 0-1.14-0.51-1.14-1.14z"/></g></g><path class="st1" d="m66.55 284h-22.93c-4.22 0-7.64 3.42-7.64 7.64v22.93c0 4.22 3.42 7.64 7.64 7.64h22.93c4.22 0 7.64-3.42 7.64-7.64v-22.93c0-4.21-3.42-7.64-7.64-7.64zm-5.73-19.11h45.86v11.47h11.47v-11.47h45.86v11.47h11.47v-13.76c0-5.06-4.12-9.18-9.18-9.18h-48.16v-15.29h9.56c4.22 0 7.64-3.42 7.64-7.64v-22.93c0-4.22-3.42-7.64-7.64-7.64h-30.57c-4.22 0-7.64 3.42-7.64 7.64v22.93c0 4.22 3.42 7.64 7.64 7.64h9.56v15.29h-48.16c-5.06 0-9.18 4.12-9.18 9.18v13.76h11.47v-11.47zm63.06 19.11h-22.93c-4.22 0-7.64 3.42-7.64 7.64v22.93c0 4.22 3.42 7.64 7.64 7.64h22.93c4.22 0 7.64-3.42 7.64-7.64v-22.93c0.01-4.21-3.42-7.64-7.64-7.64zm57.33 0h-22.93c-4.22 0-7.64 3.42-7.64 7.64v22.93c0 4.22 3.42 7.64 7.64 7.64h22.93c4.22 0 7.64-3.42 7.64-7.64v-22.93c0.01-4.21-3.42-7.64-7.64-7.64z"/><rect class="st5" x="221.34" y="262.73" width="418.66" height="54.89"/><g transform="translate(0 24)"><rect class="st8" x="244.98" y="183.22" width="439.12" height="54.89"/><g transform="translate(12 4)"><rect class="st8" x="260.43" y="188.36" width="36.59" height="36.59"/><path class="st7" d="m283.91 205.32c0.74 0.59 0.86 1.67 0.27 2.41-0.08 0.1-0.17 0.19-0.27 0.27l-6.97 5.58c-0.74 0.59-1.82 0.47-2.41-0.27-0.24-0.3-0.38-0.68-0.38-1.07v-11.16c0-0.95 0.77-1.72 1.72-1.71 0.39 0 0.77 0.13 1.07 0.38l6.97 5.57z"/></g><g transform="translate(32 4)"><rect class="st8" x="286.17" y="188.36" width="36.59" height="36.59"/><path class="st12" d="m316.3 207.3-12.58-12.58c-0.52-0.46-1.2-0.68-1.89-0.62h-5.53c-2.43 0-4.39 1.97-4.4 4.4v5.53c-0.06 0.69 0.17 1.37 0.63 1.89l12.58 12.58c1.11 1.04 2.86 0.98 3.9-0.13l7.17-7.17c1.1-1.05 1.16-2.79 0.12-3.9zm-16.44-5.24c-0.96 0.84-2.4 0.84-3.36 0-0.84-0.96-0.84-2.4 0-3.36 0.96-0.84 2.4-0.84 3.36 0 0.84 0.96 0.84 2.39 0 3.36z"/></g><text class="st7 st9 st10" transform="translate(373.06 220.95)">Environment Art</text></g><g transform="translate(0 48)"><rect class="st8" x="244.98" y="214.11" width="439.12" height="54.89"/><g transform="translate(28 4) rotate(90)"><rect class="st8" transform="matrix(2.5352e-6 1 -1 2.5352e-6 -25.173 -500.27)" x="219.25" y="-281.02" width="36.59" height="36.59"/><path class="st7" d="m242.74-264.06c0.74 0.59 0.86 1.67 0.27 2.41-0.08 0.1-0.17 0.19-0.27 0.27l-6.97 5.58c-0.74 0.59-1.82 0.47-2.41-0.27-0.24-0.3-0.38-0.68-0.38-1.07v-11.16c0-0.95 0.77-1.72 1.72-1.71 0.39 0 0.77 0.13 1.07 0.38l6.97 5.57z"/></g><g transform="translate(32 4)"><rect class="st8" x="286.17" y="219.25" width="36.59" height="36.59"/><path class="st13" d="m316.3 238.18-12.58-12.58c-0.52-0.46-1.2-0.68-1.89-0.62h-5.53c-2.43 0-4.39 1.97-4.4 4.4v5.53c-0.06 0.69 0.17 1.37 0.63 1.89l12.58 12.58c1.11 1.04 2.86 0.98 3.9-0.13l7.17-7.17c1.1-1.04 1.16-2.78 0.12-3.9zm-16.44-5.23c-0.96 0.84-2.4 0.84-3.36 0-0.84-0.96-0.84-2.4 0-3.36 0.96-0.84 2.4-0.84 3.36 0 0.84 0.96 0.84 2.39 0 3.36z"/></g><text class="st7 st9 st10" transform="translate(373.06 251.84)">Character Art</text></g></svg>
