<?xml version="1.0" encoding="utf-8"?>
<!-- Generator: Adobe Illustrator 25.2.1, SVG Export Plug-In . SVG Version: 6.00 Build 0)  -->
<svg version="1.1" id="Layer_1" xmlns="http://www.w3.org/2000/svg" xmlns:xlink="http://www.w3.org/1999/xlink" x="0px" y="0px"
	 viewBox="0 0 640 480" style="enable-background:new 0 0 640 480;" xml:space="preserve">
<style type="text/css">
	.st0{fill:#FFFFFF;}
	.st1{fill:#23252E;}
	.st2{fill:#F45E54;}
	.st3{fill:#F4B92E;}
	.st4{fill:#29C340;}
	.st5{fill:#15171A;}
	.st6{fill:#1473E6;}
	.st7{fill:#C8C8C8;}
	.st8{fill:none;}
	.st9{font-family:'ArialMT';}
	.st10{font-size:29.7321px;}
	.st11{font-family:'Arial-BoldMT';}
	.st12{fill:#FF6157;}
	.st13{fill:#FFC12F;}
</style>
<path class="st0" d="M624,480H16c-8.84,0-16-7.16-16-16V16C0,7.16,7.16,0,16,0h608c8.84,0,16,7.16,16,16v448
	C640,472.84,632.84,480,624,480z"/>
<path class="st1" d="M221.34,480H624c8.84,0,16-7.16,16-16V50H237.34c-8.84,0-16,7.16-16,16V480z"/>
<circle class="st2" cx="295.05" cy="113.37" r="15.89"/>
<circle class="st3" cx="342.73" cy="113.67" r="15.89"/>
<circle class="st4" cx="390.4" cy="113.67" r="15.89"/>
<g id="OutlinerListElement-3" transform="translate(16 96)">
	<rect id="BG-3" x="265.58" y="275.89" class="st8" width="402.53" height="54.89"/>
	<g id="TagIcon-5" transform="translate(32 4)">
		<rect id="BG_Icon-4" x="306.76" y="281.03" class="st8" width="36.59" height="36.59"/>
		<path id="TagIcon-6" class="st7" d="M336.89,299.96l-12.58-12.58c-0.52-0.46-1.2-0.68-1.89-0.62h-5.53c-2.43,0-4.39,1.97-4.4,4.4
			v5.53c-0.06,0.69,0.17,1.37,0.63,1.89l12.58,12.58c1.11,1.04,2.86,0.98,3.9-0.13l7.17-7.17
			C337.88,302.82,337.93,301.08,336.89,299.96L336.89,299.96z M320.45,294.73c-0.96,0.84-2.4,0.84-3.36,0
			c-0.84-0.96-0.84-2.4,0-3.36c0.96-0.84,2.4-0.84,3.36,0C321.29,292.33,321.29,293.76,320.45,294.73z"/>
	</g>
	<text transform="matrix(1 0 0 1 393.651 313.624)" class="st7 st9 st10">Proportions</text>
</g>
<g id="OutlinerListElement-4" transform="translate(16 72)">
	<rect id="BG-4" x="265.58" y="245" class="st8" width="402.53" height="54.89"/>
	<g id="CaretIcon-3" transform="translate(12 4)">
		<rect id="BG_Icon-5" x="281.02" y="250.14" class="st8" width="36.59" height="36.59"/>
		<path id="CaretIcon-4" class="st7" d="M304.5,267.1c0.74,0.59,0.86,1.67,0.27,2.41c-0.08,0.1-0.17,0.19-0.27,0.27l-6.97,5.58
			c-0.74,0.59-1.82,0.47-2.41-0.27c-0.24-0.3-0.38-0.68-0.38-1.07v-11.16c0-0.95,0.77-1.72,1.72-1.71c0.39,0,0.77,0.13,1.07,0.38
			L304.5,267.1z"/>
	</g>
	<g id="TagIcon-7" transform="translate(32 4)">
		<rect id="BG_Icon-6" x="306.76" y="250.14" class="st8" width="36.59" height="36.59"/>
		<path id="TagIcon-8" class="st7" d="M336.89,269.07l-12.58-12.58c-0.52-0.46-1.2-0.68-1.89-0.62h-5.53c-2.43,0-4.39,1.97-4.4,4.4
			v5.53c-0.06,0.69,0.17,1.37,0.63,1.89l12.58,12.58c1.11,1.04,2.86,0.98,3.9-0.13l7.17-7.17
			C337.88,271.93,337.93,270.19,336.89,269.07L336.89,269.07z M320.45,263.84c-0.96,0.84-2.4,0.84-3.36,0
			c-0.84-0.96-0.84-2.4,0-3.36c0.96-0.84,2.4-0.84,3.36,0C321.29,261.44,321.29,262.87,320.45,263.84z"/>
	</g>
	<text transform="matrix(1 0 0 1 393.651 282.7344)" class="st7 st9 st10">Anatomy</text>
</g>
<g id="OutlinerHeaderElement">
	<rect id="BG-7" x="244.98" y="152.33" class="st8" width="439.12" height="54.89"/>
	<text transform="matrix(1 0 0 1 281.5749 188.9209)" class="st7 st11 st10">Tags</text>
	<g id="PlusIcon" transform="translate(168 4)">
		<rect id="BG_Icon-11" x="415.07" y="157.47" class="st8" width="36.59" height="36.59"/>
		<g id="PlusIcon-2" transform="translate(4 4)">
			<path id="Rectangle_3" class="st7" d="M428.22,162.62h2.29c0.63,0,1.14,0.51,1.14,1.14v16.01c0,0.63-0.51,1.14-1.14,1.14h-2.29
				c-0.63,0-1.14-0.51-1.14-1.14v-16.01C427.08,163.14,427.59,162.62,428.22,162.62z"/>
			<path id="Rectangle_4" class="st7" d="M420.22,172.92v-2.29c0-0.63,0.51-1.14,1.14-1.14h16.01c0.63,0,1.14,0.51,1.14,1.14v2.29
				c0,0.63-0.51,1.14-1.14,1.14h-16.01C420.73,174.06,420.22,173.55,420.22,172.92z"/>
		</g>
	</g>
</g>
<path class="st1" d="M66.55,284H43.62c-4.22,0-7.64,3.42-7.64,7.64v22.93c0,4.22,3.42,7.64,7.64,7.64h22.93
	c4.22,0,7.64-3.42,7.64-7.64v-22.93C74.19,287.43,70.77,284,66.55,284z M60.82,264.89h45.86v11.47h11.47v-11.47h45.86v11.47h11.47
	V262.6c0-5.06-4.12-9.18-9.18-9.18h-48.16v-15.29h9.56c4.22,0,7.64-3.42,7.64-7.64v-22.93c0-4.22-3.42-7.64-7.64-7.64H97.13
	c-4.22,0-7.64,3.42-7.64,7.64v22.93c0,4.22,3.42,7.64,7.64,7.64h9.56v15.29H58.53c-5.06,0-9.18,4.12-9.18,9.18v13.76h11.47V264.89z
	 M123.88,284h-22.93c-4.22,0-7.64,3.42-7.64,7.64v22.93c0,4.22,3.42,7.64,7.64,7.64h22.93c4.22,0,7.64-3.42,7.64-7.64v-22.93
	C131.53,287.43,128.1,284,123.88,284z M181.21,284h-22.93c-4.22,0-7.64,3.42-7.64,7.64v22.93c0,4.22,3.42,7.64,7.64,7.64h22.93
	c4.22,0,7.64-3.42,7.64-7.64v-22.93C188.86,287.43,185.43,284,181.21,284z"/>
<g>
	<rect x="221.34" y="262.73" class="st5" width="418.66" height="54.89"/>
</g>
<g id="OutlinerListElement-6" transform="translate(0 24)">
	<rect id="BG-6" x="244.98" y="183.22" class="st8" width="439.12" height="54.89"/>
	<g id="CaretIcon-7" transform="translate(12 4)">
		<rect id="BG_Icon-9" x="260.43" y="188.36" class="st8" width="36.59" height="36.59"/>
		<path id="CaretIcon-8" class="st7" d="M283.91,205.32c0.74,0.59,0.86,1.67,0.27,2.41c-0.08,0.1-0.17,0.19-0.27,0.27l-6.97,5.58
			c-0.74,0.59-1.82,0.47-2.41-0.27c-0.24-0.3-0.38-0.68-0.38-1.07v-11.16c0-0.95,0.77-1.72,1.72-1.71c0.39,0,0.77,0.13,1.07,0.38
			L283.91,205.32z"/>
	</g>
	<g id="TagIcon-11" transform="translate(32 4)">
		<rect id="BG_Icon-10" x="286.17" y="188.36" class="st8" width="36.59" height="36.59"/>
		<path id="TagIcon-12" class="st12" d="M316.3,207.3l-12.58-12.58c-0.52-0.46-1.2-0.68-1.89-0.62h-5.53c-2.43,0-4.39,1.97-4.4,4.4
			v5.53c-0.06,0.69,0.17,1.37,0.63,1.89l12.58,12.58c1.11,1.04,2.86,0.98,3.9-0.13l7.17-7.17
			C317.28,210.15,317.34,208.41,316.3,207.3L316.3,207.3z M299.86,202.06c-0.96,0.84-2.4,0.84-3.36,0c-0.84-0.96-0.84-2.4,0-3.36
			c0.96-0.84,2.4-0.84,3.36,0C300.7,199.66,300.7,201.09,299.86,202.06z"/>
	</g>
	<text transform="matrix(1 0 0 1 373.0583 220.9541)" class="st7 st9 st10">Environment Art</text>
</g>
<g id="OutlinerListElement-5" transform="translate(0 48)">
	<rect id="BG-5" x="244.98" y="214.11" class="st8" width="439.12" height="54.89"/>
	<g id="CaretIcon-5" transform="translate(28 4) rotate(90)">
		
			<rect id="BG_Icon-7" x="219.25" y="-281.02" transform="matrix(2.535182e-06 1 -1 2.535182e-06 -25.1727 -500.2744)" class="st8" width="36.59" height="36.59"/>
		<path id="CaretIcon-6" class="st7" d="M242.74-264.06c0.74,0.59,0.86,1.67,0.27,2.41c-0.08,0.1-0.17,0.19-0.27,0.27l-6.97,5.58
			c-0.74,0.59-1.82,0.47-2.41-0.27c-0.24-0.3-0.38-0.68-0.38-1.07v-11.16c0-0.95,0.77-1.72,1.72-1.71c0.39,0,0.77,0.13,1.07,0.38
			L242.74-264.06z"/>
	</g>
	<g id="TagIcon-9" transform="translate(32 4)">
		<rect id="BG_Icon-8" x="286.17" y="219.25" class="st8" width="36.59" height="36.59"/>
		<path id="TagIcon-10" class="st13" d="M316.3,238.18l-12.58-12.58c-0.52-0.46-1.2-0.68-1.89-0.62h-5.53c-2.43,0-4.39,1.97-4.4,4.4
			v5.53c-0.06,0.69,0.17,1.37,0.63,1.89l12.58,12.58c1.11,1.04,2.86,0.98,3.9-0.13l7.17-7.17
			C317.28,241.04,317.34,239.3,316.3,238.18L316.3,238.18z M299.86,232.95c-0.96,0.84-2.4,0.84-3.36,0c-0.84-0.96-0.84-2.4,0-3.36
			c0.96-0.84,2.4-0.84,3.36,0C300.7,230.55,300.7,231.98,299.86,232.95z"/>
	</g>
	<text transform="matrix(1 0 0 1 373.0583 251.8447)" class="st7 st9 st10">Character Art</text>
</g>
</svg>
