<?xml version="1.0" encoding="utf-8"?>
<!-- Generator: Adobe Illustrator 25.2.1, SVG Export Plug-In . SVG Version: 6.00 Build 0)  -->
<svg version="1.1" id="Layer_1" xmlns="http://www.w3.org/2000/svg" xmlns:xlink="http://www.w3.org/1999/xlink" x="0px" y="0px"
	 viewBox="0 0 640 480" style="enable-background:new 0 0 640 480;" xml:space="preserve">
<style type="text/css">
	.st0{fill:#FFFFFF;}
	.st1{fill:#23252E;}
	.st2{fill:#F45E54;}
	.st3{fill:#F4B92E;}
	.st4{fill:#29C340;}
	.st5{fill:#15171A;}
	.st6{fill:#1473E6;}
	.st7{fill:#C8C8C8;}
	.st8{fill:none;}
	.st9{fill:#FF6157;}
	.st10{fill:#FFC12F;}
</style>
<path class="st0" d="M624,480H16c-8.84,0-16-7.16-16-16V16C0,7.16,7.16,0,16,0h608c8.84,0,16,7.16,16,16v448
	C640,472.84,632.84,480,624,480z"/>
<path class="st1" d="M318,430h322V50H318c-4.42,0-8,3.58-8,8v364C310,426.42,313.58,430,318,430z"/>
<path class="st1" d="M260.81,303.97l3.13-3.13c1.33-1.33,3.47-1.33,4.78,0l27.42,27.41c1.33,1.33,1.33,3.47,0,4.78l-27.42,27.42
	c-1.33,1.33-3.47,1.33-4.78,0l-3.13-3.13c-1.34-1.34-1.31-3.53,0.06-4.84l17-16.19h-40.54c-1.88,0-3.39-1.51-3.39-3.39v-4.51
	c0-1.88,1.51-3.39,3.39-3.39h40.54l-17-16.19C259.49,307.5,259.46,305.31,260.81,303.97z"/>
<circle class="st2" cx="334" cy="74" r="8"/>
<circle class="st3" cx="358" cy="74.15" r="8"/>
<circle class="st4" cx="382" cy="74.15" r="8"/>
<g>
	<path class="st5" d="M334,209.67c-3.31,0-6-2.69-6-6v-97.51c0-3.31,2.69-6,6-6h97.51c3.31,0,6,2.69,6,6v97.51c0,3.31-2.69,6-6,6
		H334z"/>
	<path class="st6" d="M431.51,102.15c2.21,0,4,1.79,4,4v97.51c0,2.21-1.79,4-4,4H334c-2.21,0-4-1.79-4-4v-97.51c0-2.21,1.79-4,4-4
		H431.51 M431.51,98.15H334c-4.42,0-8,3.58-8,8v97.51c0,4.42,3.58,8,8,8h97.51c4.42,0,8-3.58,8-8v-97.51
		C439.51,101.74,435.93,98.15,431.51,98.15L431.51,98.15z"/>
</g>
<g>
	<path class="st5" d="M431.51,331.08H334c-4.42,0-8-3.58-8-8v-97.51c0-4.42,3.58-8,8-8h97.51c4.42,0,8,3.58,8,8v97.51
		C439.51,327.5,435.93,331.08,431.51,331.08z"/>
</g>
<g>
	<path class="st5" d="M551.14,211.67h-97.51c-4.42,0-8-3.58-8-8v-97.51c0-4.42,3.58-8,8-8h97.51c4.42,0,8,3.58,8,8v97.51
		C559.14,208.08,555.55,211.67,551.14,211.67z"/>
</g>
<g>
	<path class="st5" d="M551.14,331.08h-97.51c-4.42,0-8-3.58-8-8v-97.51c0-4.42,3.58-8,8-8h97.51c4.42,0,8,3.58,8,8v97.51
		C559.14,327.5,555.55,331.08,551.14,331.08z"/>
</g>
<g>
	<path class="st5" d="M640,211.67h-67.43c-4.42,0-8-3.58-8-8v-97.51c0-4.42,3.58-8,8-8H640V211.67z"/>
</g>
<g>
	<path class="st5" d="M640,331.08h-67.43c-4.42,0-8-3.58-8-8v-97.51c0-4.42,3.58-8,8-8H640V331.08z"/>
</g>
<g>
	<path class="st5" d="M439.51,430H326v-85.02c0-4.42,3.58-8,8-8h97.51c4.42,0,8,3.58,8,8V430z"/>
</g>
<g>
	<path class="st5" d="M559.14,430H445.62v-85.02c0-4.42,3.58-8,8-8h97.51c4.42,0,8,3.58,8,8V430z"/>
</g>
<g>
	<path class="st5" d="M640,430h-75.43v-85.02c0-4.42,3.58-8,8-8H640V430z"/>
</g>
<path class="st1" d="M247.92,280.68v2.24c0,3.71-3.01,6.72-6.72,6.72h-53.75c-3.71,0-6.72-3.01-6.72-6.72v-35.83
	c0-3.71,3.01-6.72,6.72-6.72h2.24v29.11c0,6.17,5.02,11.2,11.2,11.2H247.92z M261.35,269.48v-35.83c0-3.71-3.01-6.72-6.72-6.72
	h-53.75c-3.71,0-6.72,3.01-6.72,6.72v35.83c0,3.71,3.01,6.72,6.72,6.72h53.75C258.35,276.2,261.35,273.19,261.35,269.48z
	 M216.57,240.37c0,3.71-3.01,6.72-6.72,6.72c-3.71,0-6.72-3.01-6.72-6.72c0-3.71,3.01-6.72,6.72-6.72
	C213.56,233.65,216.57,236.66,216.57,240.37z M203.13,260.52l7.77-7.77c0.66-0.66,1.72-0.66,2.38,0l5.53,5.53l18.97-18.97
	c0.66-0.66,1.72-0.66,2.38,0l12.25,12.25v15.68h-49.27V260.52z"/>
<path class="st1" d="M194.25,323.56l-20.73,35.53c-3.28,5.63-9.31,9.09-15.82,9.09H43.24c-5.3,0-8.6-5.75-5.93-10.33l20.73-35.53
	c3.28-5.63,9.31-9.09,15.82-9.09h114.47C193.62,313.23,196.92,318.98,194.25,323.56z M73.85,304.07h93.87v-13.74
	c0-7.59-6.15-13.74-13.74-13.74H108.2l-18.32-18.32H44.09c-7.59,0-13.74,6.15-13.74,13.74v79.58l19.77-33.89
	C55.02,309.3,64.12,304.07,73.85,304.07z"/>
</svg>
