<svg style="enable-background:new 0 0 640 480" version="1.1" viewBox="0 0 640 480" xmlns="http://www.w3.org/2000/svg"><style type="text/css">.st0{fill:#FFFFFF;}
	.st1{fill:#23252E;}
	.st2{fill:#F45E54;}
	.st3{fill:#F4B92E;}
	.st4{fill:#29C340;}
	.st5{fill:#15171A;}
	.st6{fill:#1473E6;}
	.st7{fill:#C8C8C8;}
	.st8{fill:none;}
	.st9{fill:#FF6157;}
	.st10{fill:#FFC12F;}</style><path class="st0" d="m624 480h-608c-8.84 0-16-7.16-16-16v-448c0-8.84 7.16-16 16-16h608c8.84 0 16 7.16 16 16v448c0 8.84-7.16 16-16 16z"/><path class="st1" d="M65.08,480h509.85V246.36c0-8.84-7.16-16-16-16H81.08c-8.84,0-16,7.16-16,16V480z"/><circle class="st2" cx="89.08" cy="254.36" r="8"/><circle class="st3" cx="113.08" cy="254.51" r="8"/><circle class="st4" cx="137.08" cy="254.51" r="8"/><path class="st5" d="m89.08 390.02c-3.31 0-6-2.69-6-6v-97.51c0-3.31 2.69-6 6-6h97.51c3.31 0 6 2.69 6 6v97.51c0 3.31-2.69 6-6 6h-97.51z"/><path class="st6" d="m186.59 282.51c2.21 0 4 1.79 4 4v97.51c0 2.21-1.79 4-4 4h-97.51c-2.21 0-4-1.79-4-4v-97.51c0-2.21 1.79-4 4-4h97.51m0-4h-97.51c-4.42 0-8 3.58-8 8v97.51c0 4.42 3.58 8 8 8h97.51c4.42 0 8-3.58 8-8v-97.51c0-4.42-3.58-8-8-8z"/><path class="st5" d="m306.21 392.02h-97.51c-4.42 0-8-3.58-8-8v-97.51c0-4.42 3.58-8 8-8h97.51c4.42 0 8 3.58 8 8v97.51c0 4.42-3.58 8-8 8z"/><path class="st5" d="M194.59,480H81.08v-73.97c0-4.42,3.58-8,8-8h97.51c4.42,0,8,3.58,8,8V480z"/><path class="st5" d="M314.21,480H200.7v-73.97c0-4.42,3.58-8,8-8h97.51c4.42,0,8,3.58,8,8V480z"/><path class="st5" d="m426.51 392.02h-97.51c-4.42 0-8-3.58-8-8v-97.51c0-4.42 3.58-8 8-8h97.51c4.42 0 8 3.58 8 8v97.51c0 4.42-3.58 8-8 8z"/><path class="st5" d="m523.28 263.86h-336.09c-2.35 0-4.26-1.91-4.26-4.26v-10.47c0-2.35 1.91-4.26 4.26-4.26h336.09c2.35 0 4.26 1.91 4.26 4.26v10.47c0 2.35-1.91 4.26-4.26 4.26z"/><path class="st5" d="m547.13 262.36h-3c-4.42 0-8-3.58-8-8v-3c0-4.42 3.58-8 8-8h3c4.42 0 8 3.58 8 8v3c0 4.42-3.58 8-8 8z"/><path class="st5" d="M434.51,480H321v-73.97c0-4.42,3.58-8,8-8h97.51c4.42,0,8,3.58,8,8V480z"/><path class="st5" d="m547.13 392.02h-97.51c-4.42 0-8-3.58-8-8v-97.51c0-4.42 3.58-8 8-8h97.51c4.42 0 8 3.58 8 8v97.51c0 4.42-3.58 8-8 8z"/><path class="st5" d="M555.13,480H441.62v-73.97c0-4.42,3.58-8,8-8h97.51c4.42,0,8,3.58,8,8V480z"/><path class="st2" d="m286.07 260.41h-95.14c-2.35 0-4.26-1.91-4.26-4.26v-3.26c0-2.35 1.91-4.26 4.26-4.26h95.14c2.35 0 4.26 1.91 4.26 4.26v3.26c0 2.35-1.91 4.26-4.26 4.26z"/><path class="st7" d="m363.12 260.41h-65.85c-2.35 0-4.26-1.91-4.26-4.26v-3.26c0-2.35 1.91-4.26 4.26-4.26h65.85c2.35 0 4.26 1.91 4.26 4.26v3.26c0 2.35-1.9 4.26-4.26 4.26z"/><path class="st1" d="m381.93 163.74-24.8-24.8c-1.12-1.12-2.64-1.74-4.23-1.74h-4.05c6.86-8.78 10.94-19.82 10.94-31.83 0-28.58-23.15-51.73-51.73-51.73s-51.73 23.15-51.73 51.73 23.15 51.73 51.73 51.73c12.01 0 23.06-4.08 31.83-10.94v4.05c0 1.59 0.62 3.11 1.74 4.23l24.8 24.8c2.34 2.34 6.12 2.34 8.43 0l7.04-7.04c2.35-2.34 2.35-6.12 0.03-8.46zm-73.86-26.54c-17.58 0-31.83-14.23-31.83-31.83 0-17.58 14.23-31.83 31.83-31.83 17.58 0 31.83 14.23 31.83 31.83 0 17.58-14.22 31.83-31.83 31.83z"/></svg>
