<svg style="enable-background:new 0 0 640 480" version="1.1" viewBox="0 0 640 480" xmlns="http://www.w3.org/2000/svg"><style type="text/css">.st0{fill:#FFFFFF;}
	.st1{fill:#23252E;}
	.st2{fill:#F45E54;}
	.st3{fill:#F4B92E;}
	.st4{fill:#29C340;}
	.st5{fill:#15171A;}
	.st6{fill:#1473E6;}
	.st7{fill:#C8C8C8;}
	.st8{fill:none;}
	.st9{fill:#FF6157;}
	.st10{fill:#FFC12F;}</style><path class="st0" d="m624 480h-608c-8.84 0-16-7.16-16-16v-448c0-8.84 7.16-16 16-16h608c8.84 0 16 7.16 16 16v448c0 8.84-7.16 16-16 16z"/><path class="st1" d="m318 430h322v-380h-322c-4.42 0-8 3.58-8 8v364c0 4.42 3.58 8 8 8z"/><path class="st1" d="m260.81 303.97 3.13-3.13c1.33-1.33 3.47-1.33 4.78 0l27.42 27.41c1.33 1.33 1.33 3.47 0 4.78l-27.42 27.42c-1.33 1.33-3.47 1.33-4.78 0l-3.13-3.13c-1.34-1.34-1.31-3.53 0.06-4.84l17-16.19h-40.54c-1.88 0-3.39-1.51-3.39-3.39v-4.51c0-1.88 1.51-3.39 3.39-3.39h40.54l-17-16.19c-1.38-1.31-1.41-3.5-0.06-4.84z"/><circle class="st2" cx="334" cy="74" r="8"/><circle class="st3" cx="358" cy="74.15" r="8"/><circle class="st4" cx="382" cy="74.15" r="8"/><path class="st5" d="m334 209.67c-3.31 0-6-2.69-6-6v-97.51c0-3.31 2.69-6 6-6h97.51c3.31 0 6 2.69 6 6v97.51c0 3.31-2.69 6-6 6h-97.51z"/><path class="st6" d="m431.51 102.15c2.21 0 4 1.79 4 4v97.51c0 2.21-1.79 4-4 4h-97.51c-2.21 0-4-1.79-4-4v-97.51c0-2.21 1.79-4 4-4h97.51m0-4h-97.51c-4.42 0-8 3.58-8 8v97.51c0 4.42 3.58 8 8 8h97.51c4.42 0 8-3.58 8-8v-97.51c0-4.41-3.58-8-8-8z"/><path class="st5" d="m431.51 331.08h-97.51c-4.42 0-8-3.58-8-8v-97.51c0-4.42 3.58-8 8-8h97.51c4.42 0 8 3.58 8 8v97.51c0 4.42-3.58 8-8 8z"/><path class="st5" d="m551.14 211.67h-97.51c-4.42 0-8-3.58-8-8v-97.51c0-4.42 3.58-8 8-8h97.51c4.42 0 8 3.58 8 8v97.51c0 4.41-3.59 8-8 8z"/><path class="st5" d="m551.14 331.08h-97.51c-4.42 0-8-3.58-8-8v-97.51c0-4.42 3.58-8 8-8h97.51c4.42 0 8 3.58 8 8v97.51c0 4.42-3.59 8-8 8z"/><path class="st5" d="M640,211.67h-67.43c-4.42,0-8-3.58-8-8v-97.51c0-4.42,3.58-8,8-8H640V211.67z"/><path class="st5" d="M640,331.08h-67.43c-4.42,0-8-3.58-8-8v-97.51c0-4.42,3.58-8,8-8H640V331.08z"/><path class="st5" d="M439.51,430H326v-85.02c0-4.42,3.58-8,8-8h97.51c4.42,0,8,3.58,8,8V430z"/><path class="st5" d="M559.14,430H445.62v-85.02c0-4.42,3.58-8,8-8h97.51c4.42,0,8,3.58,8,8V430z"/><path class="st5" d="M640,430h-75.43v-85.02c0-4.42,3.58-8,8-8H640V430z"/><path class="st1" d="m247.92 280.68v2.24c0 3.71-3.01 6.72-6.72 6.72h-53.75c-3.71 0-6.72-3.01-6.72-6.72v-35.83c0-3.71 3.01-6.72 6.72-6.72h2.24v29.11c0 6.17 5.02 11.2 11.2 11.2h47.03zm13.43-11.2v-35.83c0-3.71-3.01-6.72-6.72-6.72h-53.75c-3.71 0-6.72 3.01-6.72 6.72v35.83c0 3.71 3.01 6.72 6.72 6.72h53.75c3.72 0 6.72-3.01 6.72-6.72zm-44.78-29.11c0 3.71-3.01 6.72-6.72 6.72s-6.72-3.01-6.72-6.72 3.01-6.72 6.72-6.72 6.72 3.01 6.72 6.72zm-13.44 20.15 7.77-7.77c0.66-0.66 1.72-0.66 2.38 0l5.53 5.53 18.97-18.97c0.66-0.66 1.72-0.66 2.38 0l12.25 12.25v15.68h-49.27v-6.72z"/><path class="st1" d="m194.25 323.56-20.73 35.53c-3.28 5.63-9.31 9.09-15.82 9.09h-114.46c-5.3 0-8.6-5.75-5.93-10.33l20.73-35.53c3.28-5.63 9.31-9.09 15.82-9.09h114.47c5.29 0 8.59 5.75 5.92 10.33zm-120.4-19.49h93.87v-13.74c0-7.59-6.15-13.74-13.74-13.74h-45.78l-18.32-18.32h-45.79c-7.59 0-13.74 6.15-13.74 13.74v79.58l19.77-33.89c4.9-8.4 14-13.63 23.73-13.63z"/></svg>
