<svg xmlns="http://www.w3.org/2000/svg" xmlns:xlink="http://www.w3.org/1999/xlink" width="64" height="52" viewBox="0 0 64 52">
  <path id="Path_1" data-name="Path 1" d="M106.435,62.461c-2.256-11.1,6.38-13.612,6.38-13.612s12.6-6.2,16.67-10.261,3.486-9.375,7.693-15.188,8.064-6.392,11.161-6.052,7.344,2.638,7.543,8.793-.77,14.273,1.026,16.922,9.081,4.653,11.006,6.74,2.744,6.629,1.666,9.128a15.957,15.957,0,0,1-8.687,8.852c-5.2,2.031-8.991,1.938-12.554,0s-8.383-5.362-13.309-5.322-8.077,2.565-11.593,4.237-5.112,2.591-9.846,2.332S106.435,62.461,106.435,62.461Z" transform="translate(-106.059 -17.272)" fill="#ffffff"/>
</svg>
